<?xml version="1.0" encoding="UTF-8" standalone="no"?>
<!-- Generator: Adobe Illustrator 12.0.1, SVG Export Plug-In . SVG Version: 6.00 Build 51448)  -->

<svg
   xmlns:dc="http://purl.org/dc/elements/1.1/"
   xmlns:cc="http://creativecommons.org/ns#"
   xmlns:rdf="http://www.w3.org/1999/02/22-rdf-syntax-ns#"
   xmlns:svg="http://www.w3.org/2000/svg"
   xmlns="http://www.w3.org/2000/svg"
   xmlns:sodipodi="http://sodipodi.sourceforge.net/DTD/sodipodi-0.dtd"
   xmlns:inkscape="http://www.inkscape.org/namespaces/inkscape"
   version="1.1"
   id="Calque_1"
   width="409.60739"
   height="47.149723"
   viewBox="0 0 409.6074 47.149724"
   overflow="visible"
   enable-background="new 0 0 515.305 120.794"
   xml:space="preserve"
   inkscape:version="0.47 r22583"
   sodipodi:docname="Volutes top.svg"
   style="overflow:visible"><metadata
   id="metadata21"><rdf:RDF><cc:Work
       rdf:about=""><dc:format>image/svg+xml</dc:format><dc:type
         rdf:resource="http://purl.org/dc/dcmitype/StillImage" /><dc:title></dc:title></cc:Work></rdf:RDF></metadata><defs
   id="defs19"><inkscape:perspective
     sodipodi:type="inkscape:persp3d"
     inkscape:vp_x="0 : 60.396999 : 1"
     inkscape:vp_y="0 : 1000 : 0"
     inkscape:vp_z="515.30499 : 60.396999 : 1"
     inkscape:persp3d-origin="257.6525 : 40.264666 : 1"
     id="perspective23" /><inkscape:perspective
     id="perspective2837"
     inkscape:persp3d-origin="0.5 : 0.33333333 : 1"
     inkscape:vp_z="1 : 0.5 : 1"
     inkscape:vp_y="0 : 1000 : 0"
     inkscape:vp_x="0 : 0.5 : 1"
     sodipodi:type="inkscape:persp3d" /></defs><sodipodi:namedview
   pagecolor="#ffffff"
   bordercolor="#666666"
   borderopacity="1"
   objecttolerance="10"
   gridtolerance="10"
   guidetolerance="10"
   inkscape:pageopacity="0"
   inkscape:pageshadow="2"
   inkscape:window-width="1600"
   inkscape:window-height="838"
   id="namedview17"
   showgrid="false"
   showguides="true"
   inkscape:guide-bbox="true"
   inkscape:zoom="2.9589674"
   inkscape:cx="173.13287"
   inkscape:cy="-1.5752194"
   inkscape:window-x="-8"
   inkscape:window-y="-8"
   inkscape:window-maximized="1"
   inkscape:current-layer="g5" />
<g
   id="g3"
   transform="translate(-124.92448,0.05806599)">
	<g
   id="g5">
		<line
   x1="202.041"
   y1="0.078728512"
   x2="202.041"
   y2="42.263687"
   id="line7"
   style="fill:none;stroke:#4e4e4e;stroke-width:0.27358943" />
		<path
   d="m 129.57801,20.130566 c 11.16209,9.666697 16.43696,12.95438 30.30337,16.281741 11.60396,2.784468 30.05484,3.401924 41.83909,0.749154 37.66694,-5.640133 61.43584,-7.019762 88.39075,-7.422623 26.95491,-0.402861 72.39002,-2.090277 105.13936,-1.846276 32.74933,0.244 53.67745,2.722429 77.79831,5.847452 24.12087,3.125022 33.36944,4.992117 61.30278,13.171445"
   id="path9"
   sodipodi:nodetypes="csczzzc"
   style="fill:none;stroke:#c8d20b;stroke-width:0.36039999" />
		<path
   d="m 515.94474,13.617299 c -74.82048,17.899072 -143.63337,19.767615 -181.10589,19.684708 -37.47252,-0.08291 -94.9279,0.05753 -132.8216,4.057847 -19.30777,2.03826 -42.66446,-23.910765 -75.33026,-13.756652"
   id="path11"
   sodipodi:nodetypes="czss"
   style="fill:none;stroke:#b5047c;stroke-width:0.36039999" />
		<path
   d="m 126.81828,26.280958 c 19.53225,-2.780145 47.89484,12.494629 75.58815,11.076347 44.70839,-2.289691 87.00931,-0.273875 121.99109,0.767127 34.98178,1.041002 92.08509,0.954821 135.14304,-2.700412 20.56921,-1.746141 37.0911,-4.099426 57.66269,-10.596905"
   id="path13"
   sodipodi:nodetypes="cszsc"
   style="fill:none;stroke:#62c5ed;stroke-width:0.36039999" />
		<path
   d="m 515.17758,31.46093 c -69.13535,-9.512258 -109.02389,8.565531 -176.05062,9.913431 -101.25331,2.036191 -121.92398,-0.79491 -137.10633,-4.080814 -3.88048,-0.83985 -8.19258,-3.016767 -10.72367,-4.367814 -3.82649,-2.042509 -6.62682,-4.524878 -12.26293,-7.860047 C 168.634,18.911463 148.69848,11.954473 127.13241,17.984712"
   id="path15"
   sodipodi:nodetypes="cssssc"
   style="fill:none;stroke:#f29405;stroke-width:0.36039999" />
	</g>
</g>
</svg>