<?xml version="1.0" encoding="UTF-8" standalone="no"?>
<!-- Created with Inkscape (http://www.inkscape.org/) -->

<svg
   xmlns:dc="http://purl.org/dc/elements/1.1/"
   xmlns:cc="http://creativecommons.org/ns#"
   xmlns:rdf="http://www.w3.org/1999/02/22-rdf-syntax-ns#"
   xmlns:svg="http://www.w3.org/2000/svg"
   xmlns="http://www.w3.org/2000/svg"
   xmlns:sodipodi="http://sodipodi.sourceforge.net/DTD/sodipodi-0.dtd"
   xmlns:inkscape="http://www.inkscape.org/namespaces/inkscape"
   id="svg2847"
   version="1.1"
   inkscape:version="0.48.2 r9819"
   width="454.65375"
   height="65.972504"
   xml:space="preserve"
   sodipodi:docname="volutes bottom.svg"><metadata
     id="metadata2853"><rdf:RDF><cc:Work
         rdf:about=""><dc:format>image/svg+xml</dc:format><dc:type
           rdf:resource="http://purl.org/dc/dcmitype/StillImage" /><dc:title /></cc:Work></rdf:RDF></metadata><defs
     id="defs2851"><inkscape:perspective
       sodipodi:type="inkscape:persp3d"
       inkscape:vp_x="0 : 0.5 : 1"
       inkscape:vp_y="0 : 1000 : 0"
       inkscape:vp_z="1 : 0.5 : 1"
       inkscape:persp3d-origin="0.5 : 0.33333333 : 1"
       id="perspective2855" /><clipPath
       clipPathUnits="userSpaceOnUse"
       id="clipPath2863"><path
         d="m 0,0 841.89,0 0,595.276 L 0,595.276 0,0 z"
         id="path2865"
         inkscape:connector-curvature="0" /></clipPath><clipPath
       clipPathUnits="userSpaceOnUse"
       id="clipPath2873"><path
         d="m 0.5,0.5 840.89,0 0,594.276 -840.89,0 L 0.5,0.5 z"
         id="path2875"
         inkscape:connector-curvature="0" /></clipPath><clipPath
       clipPathUnits="userSpaceOnUse"
       id="clipPath2883"><path
         d="m 0.5,594.776 841.89,0 0,-595.276 -841.89,0 0,595.276 z"
         id="path2885"
         inkscape:connector-curvature="0" /></clipPath><clipPath
       clipPathUnits="userSpaceOnUse"
       id="clipPath2891"><path
         d="m 0.5,594.776 841.89,0 0,-595.276 -841.89,0 0,595.276 z"
         id="path2893"
         inkscape:connector-curvature="0" /></clipPath><clipPath
       clipPathUnits="userSpaceOnUse"
       id="clipPath2899"><path
         d="m 0.5,-0.5 841.89,0 0,595.276 -841.89,0 0,-595.276 z"
         id="path2901"
         inkscape:connector-curvature="0" /></clipPath><clipPath
       clipPathUnits="userSpaceOnUse"
       id="clipPath2931"><path
         d="m 291.078,457.243 362.94,0 0,55.651 -362.94,0 0,-55.651 z"
         id="path2933"
         inkscape:connector-curvature="0" /></clipPath><clipPath
       clipPathUnits="userSpaceOnUse"
       id="clipPath2951"><path
         d="m 290.768,77.736 363.747,0 0,442.63 -363.747,0 0,-442.63 z"
         id="path2953"
         inkscape:connector-curvature="0" /></clipPath><clipPath
       clipPathUnits="userSpaceOnUse"
       id="clipPath2989"><path
         d="m 290.768,77.736 363.747,0 0,442.63 -363.747,0 0,-442.63 z"
         id="path2991"
         inkscape:connector-curvature="0" /></clipPath><clipPath
       clipPathUnits="userSpaceOnUse"
       id="clipPath3207"><path
         d="m 290.768,77.736 363.747,0 0,442.63 -363.747,0 0,-442.63 z"
         id="path3209"
         inkscape:connector-curvature="0" /></clipPath><clipPath
       clipPathUnits="userSpaceOnUse"
       id="clipPath3305"><path
         d="m 290.768,77.736 363.747,0 0,442.63 -363.747,0 0,-442.63 z"
         id="path3307"
         inkscape:connector-curvature="0" /></clipPath><clipPath
       clipPathUnits="userSpaceOnUse"
       id="clipPath3631"><path
         d="m 290.768,77.736 363.747,0 0,442.63 -363.747,0 0,-442.63 z"
         id="path3633"
         inkscape:connector-curvature="0" /></clipPath><clipPath
       clipPathUnits="userSpaceOnUse"
       id="clipPath3745"><path
         d="m 290.768,77.736 363.747,0 0,442.63 -363.747,0 0,-442.63 z"
         id="path3747"
         inkscape:connector-curvature="0" /></clipPath><clipPath
       clipPathUnits="userSpaceOnUse"
       id="clipPath4011"><path
         d="m 290.792,145.421 0,-1.645 0.822,-55.613 362.901,5.363 -0.847,57.258 -362.876,-5.363 z"
         id="path4013"
         inkscape:connector-curvature="0" /></clipPath><clipPath
       clipPathUnits="userSpaceOnUse"
       id="clipPath4027"><path
         d="m 290.768,77.736 363.747,0 0,442.63 -363.747,0 0,-442.63 z"
         id="path4029"
         inkscape:connector-curvature="0" /></clipPath><clipPath
       clipPathUnits="userSpaceOnUse"
       id="clipPath4065"><path
         d="m 535.861,262.466 38.714,0 0,38.714 -38.714,0 0,-38.714 z"
         id="path4067"
         inkscape:connector-curvature="0" /></clipPath><clipPath
       clipPathUnits="userSpaceOnUse"
       id="clipPath4073"><path
         d="m 535.862,262.465 38.714,0 0,38.714 -38.714,0 0,-38.714 z"
         id="path4075"
         inkscape:connector-curvature="0" /></clipPath><clipPath
       clipPathUnits="userSpaceOnUse"
       id="clipPath4085"><path
         d="m 535.861,156.003 38.475,0 0,40.932 -38.475,0 0,-40.932 z"
         id="path4087"
         inkscape:connector-curvature="0" /></clipPath><clipPath
       clipPathUnits="userSpaceOnUse"
       id="clipPath4093"><path
         d="m 13.894,3.816 1,0 0,1 -1,0 0,-1 z"
         id="path4095"
         inkscape:connector-curvature="0" /></clipPath><clipPath
       clipPathUnits="userSpaceOnUse"
       id="clipPath4105"><path
         d="m 290.792,79.5 363.722,0 0,440.851 -363.722,0 0,-440.851 z"
         id="path4107"
         inkscape:connector-curvature="0" /></clipPath><clipPath
       clipPathUnits="userSpaceOnUse"
       id="clipPath4115"><path
         d="m 290.768,77.736 363.747,0 0,442.63 -363.747,0 0,-442.63 z"
         id="path4117"
         inkscape:connector-curvature="0" /></clipPath></defs><sodipodi:namedview
     pagecolor="#ffffff"
     bordercolor="#666666"
     borderopacity="1"
     objecttolerance="10"
     gridtolerance="10"
     guidetolerance="10"
     inkscape:pageopacity="0"
     inkscape:pageshadow="2"
     inkscape:window-width="1600"
     inkscape:window-height="838"
     id="namedview2849"
     showgrid="false"
     inkscape:zoom="1.7941495"
     inkscape:cx="151.84123"
     inkscape:cy="-5.2370376"
     inkscape:window-x="-8"
     inkscape:window-y="188"
     inkscape:window-maximized="1"
     inkscape:current-layer="g2859"
     fit-margin-top="0"
     fit-margin-left="0"
     fit-margin-right="0"
     fit-margin-bottom="0" /><g
     id="g2857"
     inkscape:groupmode="layer"
     inkscape:label="CharteGraphiqueINSARouen2008_V4"
     transform="matrix(1.25,0,0,-1.25,-399.35475,268.48597)"><g
       id="g2859"><path
         id="path2945"
         style="fill:none;stroke:#4e4e4e;stroke-width:0.17900001;stroke-linecap:butt;stroke-linejoin:miter;stroke-miterlimit:4;stroke-opacity:1;stroke-dasharray:none"
         d="m 390.9158,200.00278 0,-22.901"
         sodipodi:nodetypes="cc"
         inkscape:connector-curvature="0" /><g
         id="g4007"
         transform="translate(28.691801,64.00478)"><g
           clip-path="url(#clipPath4011)"
           id="g4009"><path
             id="path4015"
             style="fill:none;stroke:#c8d200;stroke-width:0.33000001;stroke-linecap:butt;stroke-linejoin:miter;stroke-miterlimit:4;stroke-opacity:1;stroke-dasharray:none"
             d="m 81.957,155.394 c 82.328,-20.247 184.543,-23.921 258.22,-22.044 40.624,1.034 79.994,-11.108 119.45,-7.984 M 782.536,99.562 c -8.279,1.98 -16.53,4.065 -24.765,6.254 -53.299,14.189 -102.727,21.733 -159.889,26.749 -49.357,4.334 -94.428,-3.729 -138.255,-7.199"
             inkscape:connector-curvature="0" /><path
             id="path4017"
             style="fill:none;stroke:#b5007c;stroke-width:0.33000001;stroke-linecap:butt;stroke-linejoin:miter;stroke-miterlimit:4;stroke-opacity:1;stroke-dasharray:none"
             d="m 712.662,133.581 c -85.168,2.703 -170.532,5.513 -254.326,3.224 C 337.153,133.494 217.751,125.88 139.715,101.623"
             inkscape:connector-curvature="0" /><path
             id="path4019"
             style="fill:none;stroke:#5ec5ed;stroke-width:0.33000001;stroke-linecap:butt;stroke-linejoin:miter;stroke-miterlimit:4;stroke-opacity:1;stroke-dasharray:none"
             d="m 122.193,133.82 c 40.425,0.837 80.382,3.247 124.118,2.915 89.825,-0.683 181.741,-6.996 271.638,-16.551 58.085,-6.172 116.091,-13.27 171.901,-22.013"
             inkscape:connector-curvature="0" /><path
             id="path4021"
             style="fill:none;stroke:#f29400;stroke-width:0.33000001;stroke-linecap:butt;stroke-linejoin:miter;stroke-miterlimit:4;stroke-opacity:1;stroke-dasharray:none"
             d="m 395.81,125.626 c -5.312,1.104 -10.614,2.241 -15.913,3.408 -32.908,7.241 -64.886,12.88 -106.991,15.25 -50.526,2.843 -104.472,-2.564 -145.23,-11.24 m 268.134,-7.418 c 54.293,-11.28 85.524,-17.128 155.361,-16.712 35.628,0.214 89.558,7.033 128.624,3.706 5.241,-0.444 10.556,1.052 15.938,1.56"
             inkscape:connector-curvature="0" /></g></g></g></g></svg>