<?xml version="1.0" encoding="UTF-8" standalone="no"?>
<!-- Created with Inkscape (http://www.inkscape.org/) -->

<svg
   xmlns:dc="http://purl.org/dc/elements/1.1/"
   xmlns:cc="http://creativecommons.org/ns#"
   xmlns:rdf="http://www.w3.org/1999/02/22-rdf-syntax-ns#"
   xmlns:svg="http://www.w3.org/2000/svg"
   xmlns="http://www.w3.org/2000/svg"
   xmlns:sodipodi="http://sodipodi.sourceforge.net/DTD/sodipodi-0.dtd"
   xmlns:inkscape="http://www.inkscape.org/namespaces/inkscape"
   id="svg8678"
   version="1.1"
   inkscape:version="0.48.2 r9819"
   width="407.29999"
   height="66.407547"
   xml:space="preserve"
   sodipodi:docname="cover_logo.svg"><metadata
     id="metadata8684"><rdf:RDF><cc:Work
         rdf:about=""><dc:format>image/svg+xml</dc:format><dc:type
           rdf:resource="http://purl.org/dc/dcmitype/StillImage" /><dc:title></dc:title></cc:Work></rdf:RDF></metadata><defs
     id="defs8682"><inkscape:perspective
       sodipodi:type="inkscape:persp3d"
       inkscape:vp_x="0 : 0.5 : 1"
       inkscape:vp_y="0 : 1000 : 0"
       inkscape:vp_z="1 : 0.5 : 1"
       inkscape:persp3d-origin="0.5 : 0.33333333 : 1"
       id="perspective8686" /><clipPath
       clipPathUnits="userSpaceOnUse"
       id="clipPath8694"><path
         d="m 0,0 841.89,0 0,595.276 L 0,595.276 0,0 z"
         id="path8696"
         inkscape:connector-curvature="0" /></clipPath><clipPath
       clipPathUnits="userSpaceOnUse"
       id="clipPath8704"><path
         d="m 0.5,0.5 840.89,0 0,594.276 -840.89,0 L 0.5,0.5 z"
         id="path8706"
         inkscape:connector-curvature="0" /></clipPath><clipPath
       clipPathUnits="userSpaceOnUse"
       id="clipPath8714"><path
         d="m 0.5,594.776 841.89,0 0,-595.276 -841.89,0 0,595.276 z"
         id="path8716"
         inkscape:connector-curvature="0" /></clipPath><clipPath
       clipPathUnits="userSpaceOnUse"
       id="clipPath8722"><path
         d="m 0.5,594.776 841.89,0 0,-595.276 -841.89,0 0,595.276 z"
         id="path8724"
         inkscape:connector-curvature="0" /></clipPath><clipPath
       clipPathUnits="userSpaceOnUse"
       id="clipPath8730"><path
         d="m 0.5,-0.5 841.89,0 0,595.276 -841.89,0 0,-595.276 z"
         id="path8732"
         inkscape:connector-curvature="0" /></clipPath><clipPath
       clipPathUnits="userSpaceOnUse"
       id="clipPath8762"><path
         d="m 513.778,525.668 -59.982,-0.952 0,-126.632 1.49,0.075 c 3.533,0.058 7.107,-0.245 10.713,-0.975 21.407,-4.335 42.359,-22.031 55.407,-38.688 0.002,-0.004 0.005,-0.007 0.007,-0.009 21.4,-27.323 48.336,-28.586 79.641,-14.054 0.335,0.156 0.661,0.309 0.977,0.458 l 0,180.777 -88.253,0 z"
         id="path8764"
         inkscape:connector-curvature="0" /></clipPath><clipPath
       clipPathUnits="userSpaceOnUse"
       id="clipPath8770"><path
         d="m 1.287,1.683 1,0 0,1 -1,0 0,-1 z"
         id="path8772"
         inkscape:connector-curvature="0" /></clipPath><clipPath
       clipPathUnits="userSpaceOnUse"
       id="clipPath8782"><path
         d="m 453.796,299.753 148.235,0 0,225.915 -148.235,0 0,-225.915 z"
         id="path8784"
         inkscape:connector-curvature="0" /></clipPath><clipPath
       clipPathUnits="userSpaceOnUse"
       id="clipPath8800"><path
         d="m 453.501,505.859 157.228,0 0,25.708 -157.228,0 0,-25.708 z"
         id="path8802"
         inkscape:connector-curvature="0" /></clipPath><clipPath
       clipPathUnits="userSpaceOnUse"
       id="clipPath8810"><path
         d="m 101.222,69.438 650.188,0 0,462.248 -650.188,0 0,-462.248 z"
         id="path8812"
         inkscape:connector-curvature="0" /></clipPath><clipPath
       clipPathUnits="userSpaceOnUse"
       id="clipPath8834"><path
         d="m 101.222,69.438 650.188,0 0,462.248 -650.188,0 0,-462.248 z"
         id="path8836"
         inkscape:connector-curvature="0" /></clipPath><clipPath
       clipPathUnits="userSpaceOnUse"
       id="clipPath8954"><path
         d="m 101.251,69.438 650.157,0 0,462.24 -650.157,0 0,-462.24 z"
         id="path8956"
         inkscape:connector-curvature="0" /></clipPath><clipPath
       clipPathUnits="userSpaceOnUse"
       id="clipPath8964"><path
         d="m 101.222,69.438 650.188,0 0,462.248 -650.188,0 0,-462.248 z"
         id="path8966"
         inkscape:connector-curvature="0" /></clipPath><clipPath
       clipPathUnits="userSpaceOnUse"
       id="clipPath9034"><path
         d="m 454.128,69.763 296.867,0 0,148.434 -296.867,0 0,-148.434 z"
         id="path9036"
         inkscape:connector-curvature="0" /></clipPath><clipPath
       clipPathUnits="userSpaceOnUse"
       id="clipPath9050"><path
         d="m 101.251,69.438 650.157,0 0,462.24 -650.157,0 0,-462.24 z"
         id="path9052"
         inkscape:connector-curvature="0" /></clipPath><clipPath
       clipPathUnits="userSpaceOnUse"
       id="clipPath9060"><path
         d="m 101.222,69.438 650.188,0 0,462.248 -650.188,0 0,-462.248 z"
         id="path9062"
         inkscape:connector-curvature="0" /></clipPath><clipPath
       clipPathUnits="userSpaceOnUse"
       id="clipPath9188"><path
         d="m 377.836,522.477 -275.984,-4.378 0,-173.158 9.145,1.629 9.145,0.465 c 6.659,0.111 13.398,-0.463 20.193,-1.839 40.348,-8.173 79.841,-41.526 104.433,-72.923 0.005,-0.005 0.009,-0.01 0.014,-0.016 40.335,-51.497 91.106,-53.879 150.112,-26.487 17.544,8.143 20.712,11.714 32.981,18.614 l 0,258.093 -50.039,0 z"
         id="path9190"
         inkscape:connector-curvature="0" /></clipPath><clipPath
       clipPathUnits="userSpaceOnUse"
       id="clipPath9196"><path
         d="m 0.012,0.646 1,0 0,1 -1,0 0,-1 z"
         id="path9198"
         inkscape:connector-curvature="0" /></clipPath><clipPath
       clipPathUnits="userSpaceOnUse"
       id="clipPath9208"><path
         d="m 101.852,161.553 326.023,0 0,360.924 -326.023,0 0,-360.924 z"
         id="path9210"
         inkscape:connector-curvature="0" /></clipPath><clipPath
       clipPathUnits="userSpaceOnUse"
       id="clipPath9224"><path
         d="m 101.222,69.438 650.188,0 0,462.248 -650.188,0 0,-462.248 z"
         id="path9226"
         inkscape:connector-curvature="0" /></clipPath><clipPath
       clipPathUnits="userSpaceOnUse"
       id="clipPath9268"><path
         d="m 101.852,477.384 326.023,0 0,53.309 -326.023,0 0,-53.309 z"
         id="path9270"
         inkscape:connector-curvature="0" /></clipPath><clipPath
       clipPathUnits="userSpaceOnUse"
       id="clipPath9278"><path
         d="m 101.222,69.438 650.188,0 0,462.248 -650.188,0 0,-462.248 z"
         id="path9280"
         inkscape:connector-curvature="0" /></clipPath><clipPath
       clipPathUnits="userSpaceOnUse"
       id="clipPath9418"><path
         d="m 101.251,69.438 650.157,0 0,462.24 -650.157,0 0,-462.24 z"
         id="path9420"
         inkscape:connector-curvature="0" /></clipPath><clipPath
       clipPathUnits="userSpaceOnUse"
       id="clipPath9428"><path
         d="m 0.5,-0.5 841.89,0 0,595.276 -841.89,0 0,-595.276 z"
         id="path9430"
         inkscape:connector-curvature="0" /></clipPath><inkscape:perspective
       id="perspective13044"
       inkscape:persp3d-origin="0.5 : 0.33333333 : 1"
       inkscape:vp_z="1 : 0.5 : 1"
       inkscape:vp_y="0 : 1000 : 0"
       inkscape:vp_x="0 : 0.5 : 1"
       sodipodi:type="inkscape:persp3d" /><inkscape:perspective
       id="perspective13125"
       inkscape:persp3d-origin="0.5 : 0.33333333 : 1"
       inkscape:vp_z="1 : 0.5 : 1"
       inkscape:vp_y="0 : 1000 : 0"
       inkscape:vp_x="0 : 0.5 : 1"
       sodipodi:type="inkscape:persp3d" /><inkscape:perspective
       id="perspective13147"
       inkscape:persp3d-origin="0.5 : 0.33333333 : 1"
       inkscape:vp_z="1 : 0.5 : 1"
       inkscape:vp_y="0 : 1000 : 0"
       inkscape:vp_x="0 : 0.5 : 1"
       sodipodi:type="inkscape:persp3d" /><inkscape:perspective
       id="perspective13280"
       inkscape:persp3d-origin="0.5 : 0.33333333 : 1"
       inkscape:vp_z="1 : 0.5 : 1"
       inkscape:vp_y="0 : 1000 : 0"
       inkscape:vp_x="0 : 0.5 : 1"
       sodipodi:type="inkscape:persp3d" /></defs><sodipodi:namedview
     pagecolor="#ffffff"
     bordercolor="#666666"
     borderopacity="1"
     objecttolerance="10"
     gridtolerance="10"
     guidetolerance="10"
     inkscape:pageopacity="0"
     inkscape:pageshadow="2"
     inkscape:window-width="1600"
     inkscape:window-height="838"
     id="namedview8680"
     showgrid="false"
     inkscape:zoom="1.2686553"
     inkscape:cx="331.89982"
     inkscape:cy="-88.412307"
     inkscape:window-x="-8"
     inkscape:window-y="188"
     inkscape:window-maximized="1"
     inkscape:current-layer="g8688"
     units="cm"
     fit-margin-top="0"
     fit-margin-left="0"
     fit-margin-right="0"
     fit-margin-bottom="0"><inkscape:grid
       type="xygrid"
       id="grid12252"
       empspacing="5"
       visible="true"
       enabled="true"
       snapvisiblegridlinesonly="true" /></sodipodi:namedview><g
     id="g8688"
     inkscape:groupmode="layer"
     inkscape:label="CharteGraphiqueINSARouen2008_V4"
     transform="matrix(1.25,0,0,-1.25,-368.62902,717.01598)"><g
   clip-path="url(#clipPath9428)"
   id="g9426"
   transform="translate(0,30.4)"><text
   id="text9432"
   transform="matrix(1,0,0,-1,608.8149,523.7507)"><tspan
     id="tspan9434"
     sodipodi:role="line"
     y="0"
     x="0 4.1700001 5.9850001 9.7349997 13.905"
     style="font-size:7.5px;font-variant:normal;font-weight:normal;font-stretch:normal;writing-mode:lr-tb;fill:#4e4e4e;fill-opacity:1;fill-rule:nonzero;stroke:none;font-family:Vectora LT Std;-inkscape-font-specification:VectoraLTStd-Roman" /></text>


<text
   id="text9436"
   transform="matrix(1,0,0,-1,101.4099,57.7383)"><tspan
     id="tspan9438"
     sodipodi:role="line"
     y="0"
     x="0 5.0025001 7.3649998 11.535 15.4275 19.7325"
     style="font-size:7.5px;font-variant:normal;font-weight:normal;font-stretch:normal;writing-mode:lr-tb;fill:#4e4e4e;fill-opacity:1;fill-rule:nonzero;stroke:none;font-family:Vectora LT Std;-inkscape-font-specification:VectoraLTStd-Roman" /></text>


<text
   id="text9440"
   transform="matrix(1,0,0,-1,453.7599,57.7383)"><tspan
     id="tspan9442"
     sodipodi:role="line"
     y="0"
     x="0 4.8600001 8.8874998 11.6625 14.3025 18.6075 22.9125 24.997499 29.3025 31.387501 33.202499 37.5075 41.2575 43.072498 45.712502 49.740002 52.380001 54.195 58.5"
     style="font-size:7.5px;font-variant:normal;font-weight:normal;font-stretch:normal;writing-mode:lr-tb;fill:#4e4e4e;fill-opacity:1;fill-rule:nonzero;stroke:none;font-family:Vectora LT Std;-inkscape-font-specification:VectoraLTStd-Roman" /></text>


</g><path
   d="m 294.90322,573.61278 0,-50.431 c 34.691,-4.165 76.186,-3.181 106.306,0.755 31.461,4.109 62.829,15.407 94.349,23.257 35.008,8.718 70.199,15.362 105.904,10.179 6.96,-1.011 13.323,-2.704 19.281,-4.92 l 0,21.043 -325.84,0.117 z"
   style="fill:#ffffff;fill-opacity:1;fill-rule:nonzero;stroke:none"
   id="path9272"
   inkscape:connector-curvature="0" /><text
   transform="scale(1,-1)"
   id="text9282"
   x="364.85263"
   y="-549.08173"><tspan
     style="font-size:4.92140007px;font-variant:normal;font-weight:300;font-stretch:normal;writing-mode:lr-tb;fill:#4e4e4e;fill-opacity:1;fill-rule:nonzero;stroke:none;font-family:Vectora LT Std;-inkscape-font-specification:VectoraLTStd-Light"
     x="364.85263 368.04169 369.32126 370.87149 373.42569 374.51825 375.61081 376.70334 379.34613 380.6257 383.362 386.0983 390.29135 392.84555 393.93808 396.67438"
     y="-549.08173"
     sodipodi:role="line"
     id="tspan9284">À taille humaine</tspan></text>


<text
   transform="scale(1,-1)"
   id="text9286"
   x="399.05142"
   y="-549.08173"><tspan
     style="font-size:4.92140007px;font-variant:normal;font-weight:300;font-stretch:normal;writing-mode:lr-tb;fill:#4e4e4e;fill-opacity:1;fill-rule:nonzero;stroke:none;font-family:Vectora LT Std;-inkscape-font-specification:VectoraLTStd-Light"
     x="399.05142 400.15381"
     y="-549.08173"
     sodipodi:role="line"
     id="tspan9288">, </tspan></text>


<text
   transform="scale(1,-1)"
   id="text9290"
   x="364.85263"
   y="-543.17603"><tspan
     style="font-size:4.92140007px;font-variant:normal;font-weight:bold;font-stretch:normal;writing-mode:lr-tb;fill:#4e4e4e;fill-opacity:1;fill-rule:nonzero;stroke:none;font-family:Vectora LT Std;-inkscape-font-specification:VectoraLTStd-Bold"
     x="364.85263 367.67749 369.13425 370.50238 371.95911 374.87259 377.51538 380.61588 383.52933 384.89749 386.26563 389.17911 390.63583 393.73633 396.74329 398.20004 402.84583 405.85773 408.95822 412.05869"
     y="-543.17603"
     sodipodi:role="line"
     id="tspan9292">à l’échelle du monde</tspan></text>


<path
   d="m 320.61222,540.16778 1.379,5.868 3.844,0 -1.385,-5.868 -3.838,0 z"
   style="fill:#4e4e4e;fill-opacity:1;fill-rule:nonzero;stroke:none"
   id="path9294"
   inkscape:connector-curvature="0" /><path
   d="m 325.81722,542.82278 2.595,11.019 3.795,0 -2.589,-11.019 -3.801,0 z"
   style="fill:#202867;fill-opacity:1;fill-rule:nonzero;stroke:none"
   id="path9296"
   inkscape:connector-curvature="0" /><path
   d="m 361.12422,547.20778 -1.059,-4.385 -2.954,0 0.5,2.108 -2.968,0.037 -0.505,-2.145 -3.338,0 2.592,11.018 c 0,0 8.892,0.498 7.732,-6.633 m -5.118,3.723 -0.744,-3.337 2.965,-0.033 c 0.551,3.136 -2.221,3.37 -2.221,3.37"
   style="fill:#202867;fill-opacity:1;fill-rule:nonzero;stroke:none"
   id="path9298"
   inkscape:connector-curvature="0" /><path
   d="m 319.19422,546.80078 1.231,5.255 4.616,0 -1.233,-5.255 -4.614,0 z"
   style="fill:#4e4e4e;fill-opacity:1;fill-rule:nonzero;stroke:none"
   id="path9300"
   inkscape:connector-curvature="0" /><path
   d="m 314.12322,550.24478 1.127,4.765 3.8,0 -1.123,-4.765 -3.804,0 z"
   style="fill:#4e4e4e;fill-opacity:1;fill-rule:nonzero;stroke:none"
   id="path9302"
   inkscape:connector-curvature="0" /><path
   d="m 309.19022,548.67478 0.987,4.198 3.278,0 -0.985,-4.198 -3.28,0 z"
   style="fill:#4e4e4e;fill-opacity:1;fill-rule:nonzero;stroke:none"
   id="path9304"
   inkscape:connector-curvature="0" /><path
   d="m 323.42322,554.52378 c -0.67,-1.443 -2.033,-2.231 -3.043,-1.758 -1.015,0.468 -1.294,2.021 -0.628,3.461 0.672,1.44 2.035,2.224 3.046,1.753 1.014,-0.471 1.295,-2.017 0.625,-3.456"
   style="fill:#4e4e4e;fill-opacity:1;fill-rule:nonzero;stroke:none"
   id="path9306"
   inkscape:connector-curvature="0" /><path
   d="m 334.13622,557.32878 c -0.948,-2.038 -2.989,-3.101 -4.559,-2.37 -1.571,0.732 -2.079,2.973 -1.125,5.014 0.943,2.037 2.983,3.099 4.555,2.368 1.571,-0.73 2.077,-2.974 1.129,-5.012"
   style="fill:#4e4e4e;fill-opacity:1;fill-rule:nonzero;stroke:none"
   id="path9308"
   inkscape:connector-curvature="0" /><path
   d="m 308.48022,553.19378 c -0.794,-0.787 -1.929,-0.924 -2.529,-0.315 -0.6,0.609 -0.443,1.742 0.359,2.523 0.795,0.786 1.927,0.924 2.526,0.314 0.605,-0.608 0.444,-1.743 -0.356,-2.522"
   style="fill:#4e4e4e;fill-opacity:1;fill-rule:nonzero;stroke:none"
   id="path9310"
   inkscape:connector-curvature="0" /><path
   d="m 317.20522,537.50478 c -1.071,-1.173 -2.692,-1.436 -3.613,-0.591 -0.921,0.849 -0.801,2.481 0.275,3.651 1.072,1.171 2.689,1.435 3.61,0.588 0.924,-0.841 0.798,-2.478 -0.272,-3.648"
   style="fill:#4e4e4e;fill-opacity:1;fill-rule:nonzero;stroke:none"
   id="path9312"
   inkscape:connector-curvature="0" /><path
   d="m 312.61422,533.98378 c -0.872,-0.852 -2.111,-1.001 -2.774,-0.326 -0.664,0.68 -0.497,1.919 0.371,2.769 0.869,0.855 2.112,1 2.774,0.324 0.665,-0.673 0.497,-1.913 -0.371,-2.767"
   style="fill:#4e4e4e;fill-opacity:1;fill-rule:nonzero;stroke:none"
   id="path9314"
   inkscape:connector-curvature="0" /><path
   d="m 317.21022,543.73678 c -1.355,-1.583 -3.332,-2.122 -4.403,-1.201 -1.079,0.923 -0.852,2.952 0.503,4.538 1.352,1.584 3.329,2.124 4.402,1.2 1.081,-0.919 0.851,-2.952 -0.502,-4.537"
   style="fill:#4e4e4e;fill-opacity:1;fill-rule:nonzero;stroke:none"
   id="path9316"
   inkscape:connector-curvature="0" /><path
   d="m 309.13122,548.67478 0.991,4.217 3.365,0 -0.989,-4.217 -3.367,0 z"
   style="fill:#4e4e4e;fill-opacity:1;fill-rule:nonzero;stroke:none"
   id="path9318"
   inkscape:connector-curvature="0" /><path
   d="m 340.65122,553.84078 -1.035,-4.408 c -1.662,3.673 -4.871,4.286 -5.881,4.386 0,0 -0.211,0.019 -0.238,0.019 l -0.012,0.001 -0.06,0.002 -0.003,0 -2.591,-11.019 3.257,0 1.562,6.508 c 0.738,-0.37 2.597,-1.591 2.837,-4.615 0.043,-0.562 0.032,-1.194 -0.056,-1.893 l 0.073,0 2.627,0 2.595,11.019 -3.075,0 z"
   style="fill:#202867;fill-opacity:1;fill-rule:nonzero;stroke:none"
   id="path9320"
   inkscape:connector-curvature="0" /><path
   d="m 345.61322,552.78678 c -0.317,-0.417 -0.579,-0.95 -0.617,-1.472 -0.061,-0.755 0.251,-1.519 0.689,-2.121 0.401,-0.547 1.041,-0.943 1.398,-1.517 0.598,-0.968 -0.326,-2.055 -1.369,-2.047 -0.964,0.012 -1.848,0.817 -2.446,1.574 l -0.716,-3.043 c 0.64,-0.429 2.265,-1.568 4.516,-1.184 0,0 2.906,0.471 3.487,3.196 0.149,0.717 -0.126,1.484 -0.553,2.054 -0.555,0.735 -1.757,1.417 -1.735,2.455 0.009,0.259 0.299,0.596 0.524,0.69 0.265,0.105 0.564,0.045 0.809,-0.069 0.418,-0.188 0.754,-0.508 1.061,-0.843 l 0.537,2.275 c -3.778,2.373 -5.585,0.052 -5.585,0.052"
   style="fill:#202867;fill-opacity:1;fill-rule:nonzero;stroke:none"
   id="path9322"
   inkscape:connector-curvature="0" /><path
   d="m 331.13622,539.32978 1.299,0.005 c 0.489,10e-4 0.949,-0.086 0.963,-0.54 0.013,-0.482 -0.424,-0.754 -1.211,-0.758 l -1.357,-0.002 0.306,1.295 z m -1.785,-3.558 0.942,0.002 0.405,1.709 1.106,0.002 c 0.495,0 0.991,0.002 1.006,-0.479 0.006,-0.302 -0.073,-0.6 -0.065,-0.907 0.002,-0.114 0.018,-0.216 0.067,-0.318 l 0.972,10e-4 c -0.084,0.103 -0.105,0.225 -0.105,0.343 -0.016,0.285 0.064,0.576 0.06,0.859 -0.011,0.345 -0.138,0.622 -0.586,0.75 l 0,0.009 c 0.745,0.108 1.185,0.474 1.168,1.132 -0.026,1.009 -1.243,1.055 -1.696,1.052 l -2.291,-0.003 -0.983,-4.152 z"
   style="fill:#4e4e4e;fill-opacity:1;fill-rule:nonzero;stroke:none"
   id="path9324"
   inkscape:connector-curvature="0" /><path
   d="m 336.67222,537.52578 c -0.025,0.922 0.571,1.918 1.829,1.922 0.929,0 1.43,-0.47 1.452,-1.241 0.026,-0.924 -0.569,-1.921 -1.793,-1.923 -0.928,0 -1.469,0.468 -1.488,1.242 m -0.926,-0.026 c 0.028,-1.028 0.888,-1.811 2.402,-1.808 1.415,0.006 2.779,0.796 2.73,2.541 -0.027,1.061 -0.971,1.809 -2.362,1.807 -1.379,-0.003 -2.816,-0.796 -2.77,-2.54"
   style="fill:#4e4e4e;fill-opacity:1;fill-rule:nonzero;stroke:none"
   id="path9326"
   inkscape:connector-curvature="0" /><path
   d="m 343.19022,539.95078 0.924,0 -0.611,-2.537 c -0.027,-0.111 -0.046,-0.222 -0.051,-0.34 0.002,-0.555 0.51,-0.743 1.155,-0.739 0.697,0 1.218,0.209 1.425,1.064 l 0.629,2.557 0.924,0.005 -0.622,-2.605 c -0.171,-0.69 -0.52,-1.646 -2.442,-1.651 -1.045,-10e-4 -1.968,0.406 -1.989,1.273 -0.009,0.195 0.024,0.374 0.069,0.559 l 0.589,2.414 z"
   style="fill:#4e4e4e;fill-opacity:1;fill-rule:nonzero;stroke:none"
   id="path9328"
   inkscape:connector-curvature="0" /><path
   d="m 349.67322,539.96478 3.857,0.007 -0.147,-0.63 -2.941,-0.003 -0.259,-1.088 2.727,0.007 -0.137,-0.595 -2.738,-0.006 -0.286,-1.214 2.965,0.005 -0.146,-0.626 -3.878,-0.008 0.983,4.151 z"
   style="fill:#4e4e4e;fill-opacity:1;fill-rule:nonzero;stroke:none"
   id="path9330"
   inkscape:connector-curvature="0" /><path
   d="m 355.34622,539.97478 1.014,0.003 1.709,-3.093 0.014,0 0.725,3.096 0.927,0.003 -0.981,-4.15 -1.017,-0.001 -1.716,3.077 -0.014,0 -0.718,-3.082 -0.925,-0.003 0.982,4.15 z"
   style="fill:#4e4e4e;fill-opacity:1;fill-rule:nonzero;stroke:none"
   id="path9332"
   inkscape:connector-curvature="0" /></g></svg>