<?xml version="1.0" encoding="UTF-8" standalone="no"?>
<!-- Created with Inkscape (http://www.inkscape.org/) -->

<svg
   xmlns:dc="http://purl.org/dc/elements/1.1/"
   xmlns:cc="http://creativecommons.org/ns#"
   xmlns:rdf="http://www.w3.org/1999/02/22-rdf-syntax-ns#"
   xmlns:svg="http://www.w3.org/2000/svg"
   xmlns="http://www.w3.org/2000/svg"
   xmlns:sodipodi="http://sodipodi.sourceforge.net/DTD/sodipodi-0.dtd"
   xmlns:inkscape="http://www.inkscape.org/namespaces/inkscape"
   id="svg8678"
   version="1.1"
   inkscape:version="0.48.2 r9819"
   width="407.52875"
   height="390.1181"
   xml:space="preserve"
   sodipodi:docname="cover_bleu.svg"><metadata
     id="metadata8684"><rdf:RDF><cc:Work
         rdf:about=""><dc:format>image/svg+xml</dc:format><dc:type
           rdf:resource="http://purl.org/dc/dcmitype/StillImage" /><dc:title></dc:title></cc:Work></rdf:RDF></metadata><defs
     id="defs8682"><inkscape:perspective
       sodipodi:type="inkscape:persp3d"
       inkscape:vp_x="0 : 0.5 : 1"
       inkscape:vp_y="0 : 1000 : 0"
       inkscape:vp_z="1 : 0.5 : 1"
       inkscape:persp3d-origin="0.5 : 0.33333333 : 1"
       id="perspective8686" /><clipPath
       clipPathUnits="userSpaceOnUse"
       id="clipPath8694"><path
         d="m 0,0 841.89,0 0,595.276 L 0,595.276 0,0 z"
         id="path8696"
         inkscape:connector-curvature="0" /></clipPath><clipPath
       clipPathUnits="userSpaceOnUse"
       id="clipPath8704"><path
         d="m 0.5,0.5 840.89,0 0,594.276 -840.89,0 L 0.5,0.5 z"
         id="path8706"
         inkscape:connector-curvature="0" /></clipPath><clipPath
       clipPathUnits="userSpaceOnUse"
       id="clipPath8714"><path
         d="m 0.5,594.776 841.89,0 0,-595.276 -841.89,0 0,595.276 z"
         id="path8716"
         inkscape:connector-curvature="0" /></clipPath><clipPath
       clipPathUnits="userSpaceOnUse"
       id="clipPath8722"><path
         d="m 0.5,594.776 841.89,0 0,-595.276 -841.89,0 0,595.276 z"
         id="path8724"
         inkscape:connector-curvature="0" /></clipPath><clipPath
       clipPathUnits="userSpaceOnUse"
       id="clipPath8730"><path
         d="m 0.5,-0.5 841.89,0 0,595.276 -841.89,0 0,-595.276 z"
         id="path8732"
         inkscape:connector-curvature="0" /></clipPath><clipPath
       clipPathUnits="userSpaceOnUse"
       id="clipPath8762"><path
         d="m 513.778,525.668 -59.982,-0.952 0,-126.632 1.49,0.075 c 3.533,0.058 7.107,-0.245 10.713,-0.975 21.407,-4.335 42.359,-22.031 55.407,-38.688 0.002,-0.004 0.005,-0.007 0.007,-0.009 21.4,-27.323 48.336,-28.586 79.641,-14.054 0.335,0.156 0.661,0.309 0.977,0.458 l 0,180.777 -88.253,0 z"
         id="path8764"
         inkscape:connector-curvature="0" /></clipPath><clipPath
       clipPathUnits="userSpaceOnUse"
       id="clipPath8770"><path
         d="m 1.287,1.683 1,0 0,1 -1,0 0,-1 z"
         id="path8772"
         inkscape:connector-curvature="0" /></clipPath><clipPath
       clipPathUnits="userSpaceOnUse"
       id="clipPath8782"><path
         d="m 453.796,299.753 148.235,0 0,225.915 -148.235,0 0,-225.915 z"
         id="path8784"
         inkscape:connector-curvature="0" /></clipPath><clipPath
       clipPathUnits="userSpaceOnUse"
       id="clipPath8800"><path
         d="m 453.501,505.859 157.228,0 0,25.708 -157.228,0 0,-25.708 z"
         id="path8802"
         inkscape:connector-curvature="0" /></clipPath><clipPath
       clipPathUnits="userSpaceOnUse"
       id="clipPath8810"><path
         d="m 101.222,69.438 650.188,0 0,462.248 -650.188,0 0,-462.248 z"
         id="path8812"
         inkscape:connector-curvature="0" /></clipPath><clipPath
       clipPathUnits="userSpaceOnUse"
       id="clipPath8834"><path
         d="m 101.222,69.438 650.188,0 0,462.248 -650.188,0 0,-462.248 z"
         id="path8836"
         inkscape:connector-curvature="0" /></clipPath><clipPath
       clipPathUnits="userSpaceOnUse"
       id="clipPath8954"><path
         d="m 101.251,69.438 650.157,0 0,462.24 -650.157,0 0,-462.24 z"
         id="path8956"
         inkscape:connector-curvature="0" /></clipPath><clipPath
       clipPathUnits="userSpaceOnUse"
       id="clipPath8964"><path
         d="m 101.222,69.438 650.188,0 0,462.248 -650.188,0 0,-462.248 z"
         id="path8966"
         inkscape:connector-curvature="0" /></clipPath><clipPath
       clipPathUnits="userSpaceOnUse"
       id="clipPath9034"><path
         d="m 454.128,69.763 296.867,0 0,148.434 -296.867,0 0,-148.434 z"
         id="path9036"
         inkscape:connector-curvature="0" /></clipPath><clipPath
       clipPathUnits="userSpaceOnUse"
       id="clipPath9050"><path
         d="m 101.251,69.438 650.157,0 0,462.24 -650.157,0 0,-462.24 z"
         id="path9052"
         inkscape:connector-curvature="0" /></clipPath><clipPath
       clipPathUnits="userSpaceOnUse"
       id="clipPath9060"><path
         d="m 101.222,69.438 650.188,0 0,462.248 -650.188,0 0,-462.248 z"
         id="path9062"
         inkscape:connector-curvature="0" /></clipPath><clipPath
       clipPathUnits="userSpaceOnUse"
       id="clipPath9188"><path
         d="m 377.836,522.477 -275.984,-4.378 0,-173.158 9.145,1.629 9.145,0.465 c 6.659,0.111 13.398,-0.463 20.193,-1.839 40.348,-8.173 79.841,-41.526 104.433,-72.923 0.005,-0.005 0.009,-0.01 0.014,-0.016 40.335,-51.497 91.106,-53.879 150.112,-26.487 17.544,8.143 20.712,11.714 32.981,18.614 l 0,258.093 -50.039,0 z"
         id="path9190"
         inkscape:connector-curvature="0" /></clipPath><clipPath
       clipPathUnits="userSpaceOnUse"
       id="clipPath9196"><path
         d="m 0.012,0.646 1,0 0,1 -1,0 0,-1 z"
         id="path9198"
         inkscape:connector-curvature="0" /></clipPath><clipPath
       clipPathUnits="userSpaceOnUse"
       id="clipPath9208"><path
         d="m 101.852,161.553 326.023,0 0,360.924 -326.023,0 0,-360.924 z"
         id="path9210"
         inkscape:connector-curvature="0" /></clipPath><clipPath
       clipPathUnits="userSpaceOnUse"
       id="clipPath9224"><path
         d="m 101.222,69.438 650.188,0 0,462.248 -650.188,0 0,-462.248 z"
         id="path9226"
         inkscape:connector-curvature="0" /></clipPath><clipPath
       clipPathUnits="userSpaceOnUse"
       id="clipPath9268"><path
         d="m 101.852,477.384 326.023,0 0,53.309 -326.023,0 0,-53.309 z"
         id="path9270"
         inkscape:connector-curvature="0" /></clipPath><clipPath
       clipPathUnits="userSpaceOnUse"
       id="clipPath9278"><path
         d="m 101.222,69.438 650.188,0 0,462.248 -650.188,0 0,-462.248 z"
         id="path9280"
         inkscape:connector-curvature="0" /></clipPath><clipPath
       clipPathUnits="userSpaceOnUse"
       id="clipPath9418"><path
         d="m 101.251,69.438 650.157,0 0,462.24 -650.157,0 0,-462.24 z"
         id="path9420"
         inkscape:connector-curvature="0" /></clipPath><clipPath
       clipPathUnits="userSpaceOnUse"
       id="clipPath9428"><path
         d="m 0.5,-0.5 841.89,0 0,595.276 -841.89,0 0,-595.276 z"
         id="path9430"
         inkscape:connector-curvature="0" /></clipPath><inkscape:perspective
       id="perspective13044"
       inkscape:persp3d-origin="0.5 : 0.33333333 : 1"
       inkscape:vp_z="1 : 0.5 : 1"
       inkscape:vp_y="0 : 1000 : 0"
       inkscape:vp_x="0 : 0.5 : 1"
       sodipodi:type="inkscape:persp3d" /><inkscape:perspective
       id="perspective13125"
       inkscape:persp3d-origin="0.5 : 0.33333333 : 1"
       inkscape:vp_z="1 : 0.5 : 1"
       inkscape:vp_y="0 : 1000 : 0"
       inkscape:vp_x="0 : 0.5 : 1"
       sodipodi:type="inkscape:persp3d" /><inkscape:perspective
       id="perspective13147"
       inkscape:persp3d-origin="0.5 : 0.33333333 : 1"
       inkscape:vp_z="1 : 0.5 : 1"
       inkscape:vp_y="0 : 1000 : 0"
       inkscape:vp_x="0 : 0.5 : 1"
       sodipodi:type="inkscape:persp3d" /><inkscape:perspective
       id="perspective13280"
       inkscape:persp3d-origin="0.5 : 0.33333333 : 1"
       inkscape:vp_z="1 : 0.5 : 1"
       inkscape:vp_y="0 : 1000 : 0"
       inkscape:vp_x="0 : 0.5 : 1"
       sodipodi:type="inkscape:persp3d" /></defs><sodipodi:namedview
     pagecolor="#ffffff"
     bordercolor="#666666"
     borderopacity="1"
     objecttolerance="10"
     gridtolerance="10"
     guidetolerance="10"
     inkscape:pageopacity="0"
     inkscape:pageshadow="2"
     inkscape:window-width="1600"
     inkscape:window-height="838"
     id="namedview8680"
     showgrid="false"
     inkscape:zoom="1.2686553"
     inkscape:cx="169.56863"
     inkscape:cy="235.58416"
     inkscape:window-x="-8"
     inkscape:window-y="188"
     inkscape:window-maximized="1"
     inkscape:current-layer="g8688"
     units="cm"><inkscape:grid
       type="xygrid"
       id="grid12252"
       empspacing="5"
       visible="true"
       enabled="true"
       snapvisiblegridlinesonly="true" /></sodipodi:namedview><g
     id="g8688"
     inkscape:groupmode="layer"
     inkscape:label="CharteGraphiqueINSARouen2008_V4"
     transform="matrix(1.25,0,0,-1.25,-368.51527,553.86188)"><path
   style="fill:#ffffff;fill-opacity:1;fill-rule:nonzero;stroke:none"
   d="m 530.06222,353.24439 c -31.00557,0.0567 -58.96151,-8.67805 -88.8,-15.975 -44.12026,-10.78954 -101.08179,-4.66318 -146.375,14.875 l 0,-219.7 325.875,0.375 0,188.375 c -20.25753,17.20927 -45.56914,29.5306 -80.975,31.75 -3.2783,0.20549 -6.51753,0.29414 -9.725,0.3 z"
   id="path9272-1"
   inkscape:connector-curvature="0"
   sodipodi:nodetypes="ssccccss" /><g
   clip-path="url(#clipPath9428)"
   id="g9426"
   transform="translate(0,59.331614)"><text
   id="text9432"
   transform="matrix(1,0,0,-1,608.8149,523.7507)"><tspan
     id="tspan9434"
     sodipodi:role="line"
     y="0"
     x="0 4.1700001 5.9850001 9.7349997 13.905"
     style="font-size:7.5px;font-variant:normal;font-weight:normal;font-stretch:normal;writing-mode:lr-tb;fill:#4e4e4e;fill-opacity:1;fill-rule:nonzero;stroke:none;font-family:Vectora LT Std;-inkscape-font-specification:VectoraLTStd-Roman" /></text>


<text
   id="text9436"
   transform="matrix(1,0,0,-1,101.4099,57.7383)"><tspan
     id="tspan9438"
     sodipodi:role="line"
     y="0"
     x="0 5.0025001 7.3649998 11.535 15.4275 19.7325"
     style="font-size:7.5px;font-variant:normal;font-weight:normal;font-stretch:normal;writing-mode:lr-tb;fill:#4e4e4e;fill-opacity:1;fill-rule:nonzero;stroke:none;font-family:Vectora LT Std;-inkscape-font-specification:VectoraLTStd-Roman" /></text>


<text
   id="text9440"
   transform="matrix(1,0,0,-1,453.7599,57.7383)"><tspan
     id="tspan9442"
     sodipodi:role="line"
     y="0"
     x="0 4.8600001 8.8874998 11.6625 14.3025 18.6075 22.9125 24.997499 29.3025 31.387501 33.202499 37.5075 41.2575 43.072498 45.712502 49.740002 52.380001 54.195 58.5"
     style="font-size:7.5px;font-variant:normal;font-weight:normal;font-stretch:normal;writing-mode:lr-tb;fill:#4e4e4e;fill-opacity:1;fill-rule:nonzero;stroke:none;font-family:Vectora LT Std;-inkscape-font-specification:VectoraLTStd-Roman" /></text>


</g><path
   d="M 698.34509,389.71702 C 685.78983,347.42375 636.25084,313.39135 587.86998,295.78112 528.85805,274.3008 478.08194,276.168 437.74288,316.55251 c -0.005,0.005 -0.009,0.009 -0.014,0.0141 -24.59447,24.62108 -64.09144,50.77765 -104.4435,57.18543 -46.91272,7.45079 -91.06916,-15.09841 -125.79265,-37.19668"
   style="fill:none;stroke:#f29400;stroke-width:0.60000002;stroke-linecap:butt;stroke-linejoin:miter;stroke-miterlimit:4;stroke-opacity:1;stroke-dasharray:none"
   id="path9212"
   inkscape:connector-curvature="0" /><path
   d="m 219.78297,428.9699 c 14.16342,-73.75973 139.84706,-111.66612 221.48827,-91.7009 32.92531,8.05149 63.55339,17.86118 98.52191,15.66932 86.25967,-5.40714 112.54131,-70.73503 152.03528,-120.78101"
   style="fill:none;stroke:#5ec5ed;stroke-width:0.60000002;stroke-linecap:butt;stroke-linejoin:miter;stroke-miterlimit:4;stroke-opacity:1;stroke-dasharray:none"
   id="path9214"
   inkscape:connector-curvature="0" /><path
   d="m 270.91511,327.38795 c 48.51988,-34.16728 123.56542,-19.19748 161.84227,17.2244 67.6058,64.32959 147.35182,114.81786 261.32628,71.85723"
   style="fill:none;stroke:#b5007c;stroke-width:0.60000002;stroke-linecap:butt;stroke-linejoin:miter;stroke-miterlimit:4;stroke-opacity:1;stroke-dasharray:none"
   id="path9216"
   inkscape:connector-curvature="0" /><path
   d="m 163.94835,329.04734 c 39.89601,-19.98875 76.12366,-59.82587 127.11478,-58.77974 58.58489,1.20141 87.52781,35.53808 127.52483,62.97997 53.7374,36.86731 95.63061,5.26833 153.70745,-4.11711 46.32366,-7.48686 86.71072,15.03724 114.21849,43.46096"
   style="fill:none;stroke:#c8d200;stroke-width:0.60000002;stroke-linecap:butt;stroke-linejoin:miter;stroke-miterlimit:4;stroke-opacity:1;stroke-dasharray:none"
   id="path9218"
   inkscape:connector-curvature="0" /><path
   d="m 418.58796,333.67653 0,-201.73093"
   style="fill:none;stroke:#4e4e4e;stroke-width:0.1390394;stroke-linecap:butt;stroke-linejoin:miter;stroke-miterlimit:4;stroke-opacity:1;stroke-dasharray:none"
   id="path9262"
   sodipodi:nodetypes="cc"
   inkscape:connector-curvature="0" />





</g></svg>